<mxfile host="app.diagrams.net" modified="2022-12-17T12:39:10.256Z" agent="5.0 (Windows NT 10.0; Win64; x64) AppleWebKit/537.36 (KHTML, like Gecko) Chrome/108.0.0.0 Safari/537.36" etag="V2876qx_nrIu-l0xLzB8" version="20.7.4" type="github">
  <diagram name="Page-1" id="9f46799a-70d6-7492-0946-bef42562c5a5">
    <mxGraphModel dx="1434" dy="1606" grid="1" gridSize="10" guides="1" tooltips="1" connect="1" arrows="1" fold="1" page="1" pageScale="1" pageWidth="1100" pageHeight="850" background="none" math="0" shadow="0">
      <root>
        <mxCell id="0" />
        <mxCell id="1" parent="0" />
        <mxCell id="MDeW99Wv_TVmhL8fmcQG-1" value="" style="strokeWidth=1;shadow=0;dashed=0;align=center;html=1;shape=mxgraph.mockup.containers.browserWindow;rSize=0;strokeColor=#666666;strokeColor2=#008cff;strokeColor3=#c4c4c4;mainText=,;recursiveResize=0;movable=0;resizable=0;rotatable=0;deletable=0;editable=0;connectable=0;" parent="1" vertex="1">
          <mxGeometry x="140" y="50" width="1010" height="540" as="geometry" />
        </mxCell>
        <mxCell id="MDeW99Wv_TVmhL8fmcQG-2" value="Page 1" style="strokeWidth=1;shadow=0;dashed=0;align=center;html=1;shape=mxgraph.mockup.containers.anchor;fontSize=17;fontColor=#666666;align=left;" parent="MDeW99Wv_TVmhL8fmcQG-1" vertex="1">
          <mxGeometry x="60" y="12" width="110" height="26" as="geometry" />
        </mxCell>
        <mxCell id="MDeW99Wv_TVmhL8fmcQG-3" value="https://www.localChatter.io" style="strokeWidth=1;shadow=0;dashed=0;align=center;html=1;shape=mxgraph.mockup.containers.anchor;rSize=0;fontSize=17;fontColor=#666666;align=left;" parent="MDeW99Wv_TVmhL8fmcQG-1" vertex="1">
          <mxGeometry x="130" y="60" width="250" height="26" as="geometry" />
        </mxCell>
        <mxCell id="XNVYEaM1eZ4Xnqiq9NsT-5" value="Else" style="strokeColor=inherit;fillColor=inherit;gradientColor=inherit;strokeWidth=1;shadow=0;dashed=0;align=center;html=1;shape=mxgraph.mockup.containers.rrect;rSize=0;fontSize=17;fontColor=#666666;" vertex="1" parent="MDeW99Wv_TVmhL8fmcQG-1">
          <mxGeometry x="190" y="280" width="130" height="25" as="geometry" />
        </mxCell>
        <mxCell id="XNVYEaM1eZ4Xnqiq9NsT-32" value="Chats" style="text;html=1;strokeColor=none;fillColor=none;align=center;verticalAlign=middle;whiteSpace=wrap;rounded=0;" vertex="1" parent="MDeW99Wv_TVmhL8fmcQG-1">
          <mxGeometry x="190" y="150" width="60" height="30" as="geometry" />
        </mxCell>
        <mxCell id="XNVYEaM1eZ4Xnqiq9NsT-33" value="" style="html=1;verticalLabelPosition=bottom;align=center;labelBackgroundColor=#ffffff;verticalAlign=top;strokeWidth=2;strokeColor=#0080F0;shadow=0;dashed=0;shape=mxgraph.ios7.icons.add;" vertex="1" parent="MDeW99Wv_TVmhL8fmcQG-1">
          <mxGeometry x="280" y="155" width="20" height="20" as="geometry" />
        </mxCell>
        <mxCell id="MDeW99Wv_TVmhL8fmcQG-70" value="" style="strokeWidth=1;shadow=0;dashed=0;align=center;html=1;shape=mxgraph.mockup.containers.marginRect2;rectMarginLeft=67;strokeColor=#666666;gradientColor=none;movable=0;resizable=0;rotatable=0;deletable=0;editable=0;connectable=0;" parent="MDeW99Wv_TVmhL8fmcQG-1" vertex="1">
          <mxGeometry x="260" y="175" width="490" height="260" as="geometry" />
        </mxCell>
        <mxCell id="MDeW99Wv_TVmhL8fmcQG-71" value="Someone" style="strokeColor=inherit;fillColor=inherit;gradientColor=inherit;strokeWidth=1;shadow=0;dashed=0;align=center;html=1;shape=mxgraph.mockup.containers.rrect;rSize=0;fontSize=17;fontColor=#666666;" parent="MDeW99Wv_TVmhL8fmcQG-70" vertex="1">
          <mxGeometry width="130" height="25" relative="1" as="geometry">
            <mxPoint x="-70" y="10" as="offset" />
          </mxGeometry>
        </mxCell>
        <mxCell id="MDeW99Wv_TVmhL8fmcQG-72" value="Kristan F.." style="strokeWidth=1;shadow=0;dashed=0;align=center;html=1;shape=mxgraph.mockup.containers.rrect;rSize=0;fontSize=17;fontColor=#ffffff;strokeColor=#008cff;fillColor=#008cff;" parent="MDeW99Wv_TVmhL8fmcQG-70" vertex="1">
          <mxGeometry width="130" height="25" relative="1" as="geometry">
            <mxPoint x="-70" y="40" as="offset" />
          </mxGeometry>
        </mxCell>
        <mxCell id="MDeW99Wv_TVmhL8fmcQG-73" value="Another" style="strokeColor=inherit;fillColor=inherit;gradientColor=inherit;strokeWidth=1;shadow=0;dashed=0;align=center;html=1;shape=mxgraph.mockup.containers.rrect;rSize=0;fontSize=17;fontColor=#666666;" parent="MDeW99Wv_TVmhL8fmcQG-70" vertex="1">
          <mxGeometry width="130" height="25" relative="1" as="geometry">
            <mxPoint x="-70" y="70" as="offset" />
          </mxGeometry>
        </mxCell>
        <mxCell id="MDeW99Wv_TVmhL8fmcQG-74" value="" style="strokeWidth=1;shadow=0;dashed=0;align=center;html=1;shape=mxgraph.mockup.containers.leftButton;rSize=5;strokeColor=#008cff;fillColor=#008cff;resizeHeight=1;movable=0;deletable=0;" parent="MDeW99Wv_TVmhL8fmcQG-70" vertex="1">
          <mxGeometry width="20" height="260" relative="1" as="geometry">
            <mxPoint x="60" as="offset" />
          </mxGeometry>
        </mxCell>
        <mxCell id="XNVYEaM1eZ4Xnqiq9NsT-41" value="" style="group" vertex="1" connectable="0" parent="MDeW99Wv_TVmhL8fmcQG-70">
          <mxGeometry x="110" y="25" width="180" height="80" as="geometry" />
        </mxCell>
        <mxCell id="XNVYEaM1eZ4Xnqiq9NsT-44" value="" style="group" vertex="1" connectable="0" parent="XNVYEaM1eZ4Xnqiq9NsT-41">
          <mxGeometry width="180" height="80" as="geometry" />
        </mxCell>
        <mxCell id="XNVYEaM1eZ4Xnqiq9NsT-34" value="" style="rounded=1;whiteSpace=wrap;html=1;" vertex="1" parent="XNVYEaM1eZ4Xnqiq9NsT-44">
          <mxGeometry width="170" height="80" as="geometry" />
        </mxCell>
        <mxCell id="XNVYEaM1eZ4Xnqiq9NsT-37" value="Kristain F..." style="text;html=1;strokeColor=none;fillColor=none;align=center;verticalAlign=middle;whiteSpace=wrap;rounded=0;" vertex="1" parent="XNVYEaM1eZ4Xnqiq9NsT-44">
          <mxGeometry width="70" height="30" as="geometry" />
        </mxCell>
        <mxCell id="XNVYEaM1eZ4Xnqiq9NsT-39" value="Bla bla bla&amp;nbsp;" style="text;html=1;strokeColor=none;fillColor=none;align=left;verticalAlign=middle;whiteSpace=wrap;rounded=0;" vertex="1" parent="XNVYEaM1eZ4Xnqiq9NsT-44">
          <mxGeometry x="10" y="35" width="150" height="30" as="geometry" />
        </mxCell>
        <mxCell id="XNVYEaM1eZ4Xnqiq9NsT-42" value="13:33" style="text;html=1;strokeColor=none;fillColor=none;align=center;verticalAlign=middle;whiteSpace=wrap;rounded=0;" vertex="1" parent="XNVYEaM1eZ4Xnqiq9NsT-44">
          <mxGeometry x="120" y="50" width="60" height="30" as="geometry" />
        </mxCell>
        <mxCell id="XNVYEaM1eZ4Xnqiq9NsT-46" value="" style="rounded=1;whiteSpace=wrap;html=1;" vertex="1" parent="MDeW99Wv_TVmhL8fmcQG-70">
          <mxGeometry x="300" y="160" width="170" height="50" as="geometry" />
        </mxCell>
        <mxCell id="XNVYEaM1eZ4Xnqiq9NsT-48" value="Bla bla bla&amp;nbsp;" style="text;html=1;strokeColor=none;fillColor=none;align=left;verticalAlign=middle;whiteSpace=wrap;rounded=0;" vertex="1" parent="MDeW99Wv_TVmhL8fmcQG-70">
          <mxGeometry x="310" y="170" width="150" height="30" as="geometry" />
        </mxCell>
        <mxCell id="XNVYEaM1eZ4Xnqiq9NsT-49" value="13:35" style="text;html=1;strokeColor=none;fillColor=none;align=center;verticalAlign=middle;whiteSpace=wrap;rounded=0;" vertex="1" parent="MDeW99Wv_TVmhL8fmcQG-70">
          <mxGeometry x="420" y="185" width="60" height="30" as="geometry" />
        </mxCell>
        <mxCell id="XNVYEaM1eZ4Xnqiq9NsT-52" value="" style="verticalLabelPosition=bottom;shadow=0;dashed=0;align=center;html=1;verticalAlign=top;strokeWidth=1;shape=mxgraph.mockup.forms.horSlider;strokeColor=#999999;sliderStyle=basic;sliderPos=20;handleStyle=circle;fillColor2=#ddeeff;direction=north;" vertex="1" parent="MDeW99Wv_TVmhL8fmcQG-1">
          <mxGeometry x="750" y="230" width="30" height="150" as="geometry" />
        </mxCell>
        <mxCell id="XNVYEaM1eZ4Xnqiq9NsT-28" value="" style="strokeWidth=1;shadow=0;dashed=0;align=center;html=1;shape=mxgraph.mockup.containers.browserWindow;rSize=0;strokeColor=#666666;strokeColor2=#008cff;strokeColor3=#c4c4c4;mainText=,;recursiveResize=0;" vertex="1" parent="1">
          <mxGeometry x="140" y="-570" width="1010" height="570" as="geometry" />
        </mxCell>
        <mxCell id="XNVYEaM1eZ4Xnqiq9NsT-29" value="Page 1" style="strokeWidth=1;shadow=0;dashed=0;align=center;html=1;shape=mxgraph.mockup.containers.anchor;fontSize=17;fontColor=#666666;align=left;" vertex="1" parent="XNVYEaM1eZ4Xnqiq9NsT-28">
          <mxGeometry x="60" y="12" width="110" height="26" as="geometry" />
        </mxCell>
        <mxCell id="XNVYEaM1eZ4Xnqiq9NsT-30" value="https://www.localChatter.io" style="strokeWidth=1;shadow=0;dashed=0;align=center;html=1;shape=mxgraph.mockup.containers.anchor;rSize=0;fontSize=17;fontColor=#666666;align=left;" vertex="1" parent="XNVYEaM1eZ4Xnqiq9NsT-28">
          <mxGeometry x="130" y="60" width="250" height="26" as="geometry" />
        </mxCell>
        <mxCell id="XNVYEaM1eZ4Xnqiq9NsT-11" value="" style="strokeWidth=1;shadow=0;dashed=0;align=center;html=1;shape=mxgraph.mockup.forms.rrect;rSize=0;strokeColor=#999999;fillColor=#ffffff;" vertex="1" parent="XNVYEaM1eZ4Xnqiq9NsT-28">
          <mxGeometry x="410" y="180" width="200" height="300" as="geometry" />
        </mxCell>
        <mxCell id="XNVYEaM1eZ4Xnqiq9NsT-12" value="Sign In" style="strokeWidth=1;shadow=0;dashed=0;align=center;html=1;shape=mxgraph.mockup.forms.anchor;fontSize=12;fontColor=#666666;align=left;resizeWidth=1;spacingLeft=0;" vertex="1" parent="XNVYEaM1eZ4Xnqiq9NsT-11">
          <mxGeometry width="100" height="20" relative="1" as="geometry">
            <mxPoint x="10" y="10" as="offset" />
          </mxGeometry>
        </mxCell>
        <mxCell id="XNVYEaM1eZ4Xnqiq9NsT-13" value="" style="shape=line;strokeColor=#ddeeff;strokeWidth=2;html=1;resizeWidth=1;" vertex="1" parent="XNVYEaM1eZ4Xnqiq9NsT-11">
          <mxGeometry width="180" height="10" relative="1" as="geometry">
            <mxPoint x="10" y="30" as="offset" />
          </mxGeometry>
        </mxCell>
        <mxCell id="XNVYEaM1eZ4Xnqiq9NsT-14" value="User Name:" style="strokeWidth=1;shadow=0;dashed=0;align=center;html=1;shape=mxgraph.mockup.forms.anchor;fontSize=12;fontColor=#666666;align=left;resizeWidth=1;spacingLeft=0;" vertex="1" parent="XNVYEaM1eZ4Xnqiq9NsT-11">
          <mxGeometry width="100" height="20" relative="1" as="geometry">
            <mxPoint x="10" y="40" as="offset" />
          </mxGeometry>
        </mxCell>
        <mxCell id="XNVYEaM1eZ4Xnqiq9NsT-15" value="johndoe" style="strokeWidth=1;shadow=0;dashed=0;align=center;html=1;shape=mxgraph.mockup.forms.rrect;rSize=0;strokeColor=#999999;fontColor=#666666;align=left;spacingLeft=5;resizeWidth=1;" vertex="1" parent="XNVYEaM1eZ4Xnqiq9NsT-11">
          <mxGeometry width="150" height="25" relative="1" as="geometry">
            <mxPoint x="10" y="60" as="offset" />
          </mxGeometry>
        </mxCell>
        <mxCell id="XNVYEaM1eZ4Xnqiq9NsT-16" value="Password:" style="strokeWidth=1;shadow=0;dashed=0;align=center;html=1;shape=mxgraph.mockup.forms.anchor;fontSize=12;fontColor=#666666;align=left;resizeWidth=1;spacingLeft=0;" vertex="1" parent="XNVYEaM1eZ4Xnqiq9NsT-11">
          <mxGeometry width="100" height="20" relative="1" as="geometry">
            <mxPoint x="10" y="95" as="offset" />
          </mxGeometry>
        </mxCell>
        <mxCell id="XNVYEaM1eZ4Xnqiq9NsT-17" value="********" style="strokeWidth=1;shadow=0;dashed=0;align=center;html=1;shape=mxgraph.mockup.forms.rrect;rSize=0;strokeColor=#999999;fontColor=#666666;align=left;spacingLeft=5;resizeWidth=1;" vertex="1" parent="XNVYEaM1eZ4Xnqiq9NsT-11">
          <mxGeometry width="150" height="25" relative="1" as="geometry">
            <mxPoint x="10" y="115" as="offset" />
          </mxGeometry>
        </mxCell>
        <mxCell id="XNVYEaM1eZ4Xnqiq9NsT-18" value="SIGN IN" style="strokeWidth=1;shadow=0;dashed=0;align=center;html=1;shape=mxgraph.mockup.forms.rrect;rSize=5;strokeColor=none;fontColor=#ffffff;fillColor=#66bbff;fontSize=16;fontStyle=1;" vertex="1" parent="XNVYEaM1eZ4Xnqiq9NsT-11">
          <mxGeometry y="1" width="80" height="30" relative="1" as="geometry">
            <mxPoint x="20" y="-150" as="offset" />
          </mxGeometry>
        </mxCell>
        <mxCell id="XNVYEaM1eZ4Xnqiq9NsT-19" value="Forgot Password?" style="strokeWidth=1;shadow=0;dashed=0;align=center;html=1;shape=mxgraph.mockup.forms.anchor;fontSize=12;fontColor=#9999ff;align=left;spacingLeft=0;fontStyle=4;resizeWidth=1;" vertex="1" parent="XNVYEaM1eZ4Xnqiq9NsT-11">
          <mxGeometry y="1" width="150" height="20" relative="1" as="geometry">
            <mxPoint x="10" y="-110" as="offset" />
          </mxGeometry>
        </mxCell>
        <mxCell id="XNVYEaM1eZ4Xnqiq9NsT-20" value="" style="shape=line;strokeColor=#ddeeff;strokeWidth=2;html=1;resizeWidth=1;" vertex="1" parent="XNVYEaM1eZ4Xnqiq9NsT-11">
          <mxGeometry y="1" width="180" height="10" relative="1" as="geometry">
            <mxPoint x="10" y="-90" as="offset" />
          </mxGeometry>
        </mxCell>
        <mxCell id="XNVYEaM1eZ4Xnqiq9NsT-21" value="New User" style="strokeWidth=1;shadow=0;dashed=0;align=center;html=1;shape=mxgraph.mockup.forms.anchor;fontSize=12;fontColor=#666666;align=left;spacingLeft=0;resizeWidth=1;" vertex="1" parent="XNVYEaM1eZ4Xnqiq9NsT-11">
          <mxGeometry y="1" width="150" height="20" relative="1" as="geometry">
            <mxPoint x="10" y="-70" as="offset" />
          </mxGeometry>
        </mxCell>
        <mxCell id="XNVYEaM1eZ4Xnqiq9NsT-22" value="SIGN UP" style="strokeWidth=1;shadow=0;dashed=0;align=center;html=1;shape=mxgraph.mockup.forms.rrect;rSize=5;strokeColor=none;fontColor=#ffffff;fillColor=#66bbff;fontSize=16;fontStyle=1;" vertex="1" parent="XNVYEaM1eZ4Xnqiq9NsT-11">
          <mxGeometry y="1" width="80" height="30" relative="1" as="geometry">
            <mxPoint x="20" y="-50" as="offset" />
          </mxGeometry>
        </mxCell>
      </root>
    </mxGraphModel>
  </diagram>
</mxfile>
